<svg width="23" height="23" viewBox="0 0 23 23" fill="none" xmlns="http://www.w3.org/2000/svg">
<path d="M3.66443 21.2847L6.70508 19.9592L8.03053 22.9999L11.1492 14.8135C9.51186 14.7356 7.95254 14.1898 6.78307 13.2542L3.66443 21.2847Z" fill="#FF8CE6"/>
<path d="M16.2169 13.2542C14.9695 14.1898 13.4881 14.7356 11.8508 14.8135L14.9695 22.9999L16.2949 19.9592L19.3356 21.2847L16.2169 13.2542Z" fill="#FF8CE6"/>
<path d="M18.478 7.01694C18.478 3.11864 15.3593 0 11.461 0C7.56273 0 4.44409 3.11864 4.44409 7.01694C4.44409 10.9152 7.56273 14.0339 11.461 14.0339C15.3593 14.0339 18.478 10.9152 18.478 7.01694ZM14.1898 10.9152L11.461 9.12205L8.7322 10.9152L9.90171 7.7966L7.56273 6.23728H10.2916L11.4611 3.11864L12.6306 6.23728H15.3594L13.0204 7.7966L14.1898 10.9152Z" fill="#FF8CE6"/>
</svg>
