<svg width="83" height="80" viewBox="0 0 83 80" fill="none" xmlns="http://www.w3.org/2000/svg">
<rect width="82.2656" height="79.7344" rx="8" fill="#FEF4F0"/>
<path d="M55.9163 62.5689L31.5211 54.681V16.7344L55.7527 24.5635C56.2882 24.7395 56.7572 25.0959 57.0909 25.5805C57.4245 26.065 57.6053 26.6521 57.6066 27.2555V61.2288C57.6076 61.4493 57.5602 61.667 57.4683 61.864C57.3764 62.061 57.2426 62.2318 57.0778 62.3625C56.913 62.4931 56.7219 62.5799 56.52 62.6158C56.3182 62.6517 56.1113 62.6356 55.9163 62.5689Z" fill="white"/>
<path d="M55.9163 62.5689L31.5211 54.681V16.7344L55.7527 24.5635C56.2882 24.7395 56.7572 25.0959 57.0909 25.5805C57.4245 26.065 57.6053 26.6521 57.6066 27.2555V61.2288C57.6076 61.4493 57.5602 61.667 57.4683 61.864C57.3764 62.061 57.2426 62.2318 57.0778 62.3625C56.913 62.4931 56.7219 62.5799 56.52 62.6158C56.3182 62.6517 56.1113 62.6356 55.9163 62.5689Z" stroke="#45413C" stroke-linecap="round" stroke-linejoin="round"/>
<path d="M36.8429 18.4624L31.5211 16.7344V54.681L36.8429 56.3973V18.4624Z" fill="#232323" stroke="#45413C" stroke-linecap="round" stroke-linejoin="round"/>
<path d="M31.5214 16.7344L25 21.6599V36.942L31.5214 30.6999V16.7344Z" fill="#232323" stroke="#45413C" stroke-linecap="round" stroke-linejoin="round"/>
<path opacity="0.15" d="M40.4856 69.728C48.767 69.728 55.4804 68.7859 55.4804 67.6238C55.4804 66.4616 48.767 65.5195 40.4856 65.5195C32.2042 65.5195 25.4908 66.4616 25.4908 67.6238C25.4908 68.7859 32.2042 69.728 40.4856 69.728Z" fill="#45413C"/>
<path d="M49.384 66.1308L54.335 62.0634V27.6317L49.384 31.3111V66.1308Z" fill="white"/>
<path d="M49.384 31.3111V36.9185L54.335 33.2272V27.6317L49.384 31.3111Z" fill="#FFFEF2"/>
<path d="M49.384 66.1308L54.335 62.0634V27.6317L49.384 31.3111V66.1308Z" stroke="#45413C" stroke-linecap="round" stroke-linejoin="round"/>
<path d="M31.5214 20.2493L26.6359 23.9405L49.4498 31.3112L54.3354 27.6317L31.5214 20.2493Z" fill="#FFFEF2" stroke="#45413C" stroke-linecap="round" stroke-linejoin="round"/>
<path d="M49.3952 67.4827L25.9379 59.9004C25.6672 59.8142 25.4297 59.636 25.2606 59.3924C25.0916 59.1488 25.0002 58.8528 25 58.5485V21.6599L49.2098 29.489C49.7471 29.6617 50.2181 30.0173 50.5522 30.5026C50.8864 30.9878 51.0659 31.5767 51.0637 32.181V66.2013C51.0554 66.4142 51.0021 66.6221 50.9079 66.8094C50.8137 66.9966 50.681 67.1582 50.5201 67.2818C50.3592 67.4054 50.1742 67.4877 49.9792 67.5226C49.7843 67.5574 49.5845 67.5437 49.3952 67.4827Z" fill="white"/>
<path d="M49.2098 29.489L25 21.6599V25.7861L49.2098 33.6152C49.7471 33.7879 50.2181 34.1435 50.5522 34.6287C50.8864 35.114 51.0659 35.7028 51.0637 36.3072V32.181C51.0659 31.5767 50.8864 30.9878 50.5522 30.5026C50.2181 30.0173 49.7471 29.6617 49.2098 29.489Z" fill="white"/>
<path d="M49.3952 67.4827L25.9379 59.9004C25.6672 59.8142 25.4297 59.636 25.2606 59.3924C25.0916 59.1488 25.0002 58.8528 25 58.5485V21.6599L49.2098 29.489C49.7471 29.6617 50.2181 30.0173 50.5522 30.5026C50.8864 30.9878 51.0659 31.5767 51.0637 32.181V66.2013C51.0554 66.4142 51.0021 66.6221 50.9079 66.8094C50.8137 66.9966 50.681 67.1582 50.5201 67.2818C50.3592 67.4054 50.1742 67.4877 49.9792 67.5226C49.7842 67.5574 49.5845 67.5437 49.3952 67.4827Z" stroke="#45413C" stroke-linecap="round" stroke-linejoin="round"/>
<path d="M30.3327 23.3762L25 21.6599V58.5485C25.0002 58.8527 25.0916 59.1487 25.2606 59.3924C25.4297 59.636 25.6672 59.8142 25.9379 59.9004L30.3 61.3228L30.3327 23.3762Z" fill="#232323"/>
<path d="M25 21.6599V25.7861L30.3327 27.5024V23.3762L25 21.6599Z" fill="#343434"/>
<path d="M30.3327 23.3762L25 21.6599V58.5485C25.0002 58.8527 25.0916 59.1487 25.2606 59.3924C25.4297 59.636 25.6672 59.8142 25.9379 59.9004L30.3 61.3228L30.3327 23.3762Z" stroke="#45413C" stroke-linecap="round" stroke-linejoin="round"/>
<path d="M44.6407 41.4914L36.3308 38.8582V33.2273L44.6407 35.8723V41.4914Z" fill="white" stroke="#45413C" stroke-linecap="round" stroke-linejoin="round"/>
</svg>
