<svg width="83" height="80" viewBox="0 0 83 80" fill="none" xmlns="http://www.w3.org/2000/svg">
<rect width="82.2656" height="79.7344" rx="8" fill="#E2D8FC"/>
<path d="M11.8639 28.8466C11.6483 28.2047 11.994 27.5096 12.6359 27.294L39.0655 18.4174C39.7074 18.2018 40.4025 18.5474 40.6181 19.1893L52.1988 53.6701C52.4144 54.312 52.0688 55.0071 51.4268 55.2227L24.9973 64.0995C24.3554 64.3146 23.6602 63.9695 23.4446 63.3277L11.8639 28.8466Z" fill="black"/>
<path d="M8.83087 27.33C8.61526 26.6881 8.96083 25.993 9.60274 25.7773L36.0324 16.9008C36.6743 16.6851 37.3694 17.0307 37.585 17.6726L49.1657 52.1535C49.3812 52.7953 49.0357 53.4905 48.3938 53.706L21.9641 62.5828C21.3222 62.798 20.6271 62.4527 20.4115 61.8107L8.83087 27.33Z" fill="white"/>
<path fill-rule="evenodd" clip-rule="evenodd" d="M9.21241 24.6151L35.642 15.7384C36.9258 15.3073 38.3161 15.9985 38.7472 17.2823L50.3279 51.7631C50.7591 53.0469 50.0679 54.4371 48.7841 54.8683L22.3545 63.7451C21.0707 64.1761 19.6804 63.4852 19.2492 62.2011L7.66854 27.7203C7.23739 26.4365 7.92859 25.0462 9.21241 24.6151ZM9.60273 25.7773C8.96082 25.9929 8.61525 26.6881 8.83086 27.33L20.4115 61.8107C20.6271 62.4526 21.3222 62.798 21.9641 62.5828L48.3938 53.7061C49.0357 53.4905 49.3812 52.7953 49.1657 52.1534L37.585 17.6726C37.3694 17.0307 36.6743 16.6851 36.0324 16.9007L9.60273 25.7773Z" fill="black"/>
<path fill-rule="evenodd" clip-rule="evenodd" d="M16.7454 32.3377C16.6377 32.0167 16.8105 31.6692 17.1314 31.5613L32.8743 26.2739C33.1952 26.1662 33.5428 26.339 33.6506 26.6599C33.7584 26.9809 33.5856 27.3284 33.2646 27.4363L17.5218 32.7236C17.2008 32.8314 16.8533 32.6586 16.7454 32.3377Z" fill="black"/>
<path fill-rule="evenodd" clip-rule="evenodd" d="M18.0007 36.0757C17.8929 35.7548 18.0657 35.4072 18.3867 35.2994L34.1296 30.0121C34.4505 29.9042 34.7981 30.077 34.9059 30.398C35.0137 30.719 34.8409 31.0666 34.5199 31.1743L18.777 36.4617C18.456 36.5695 18.1085 36.3967 18.0007 36.0757Z" fill="black"/>
<path fill-rule="evenodd" clip-rule="evenodd" d="M19.2566 39.8139C19.1487 39.493 19.3216 39.1454 19.6425 39.0376L35.3854 33.7502C35.7064 33.6424 36.0539 33.8152 36.1617 34.1361C36.2695 34.4571 36.0967 34.8047 35.7758 34.9125L20.0329 40.1999C19.7119 40.3076 19.3643 40.1349 19.2566 39.8139Z" fill="black"/>
<path fill-rule="evenodd" clip-rule="evenodd" d="M20.5119 43.552C20.4041 43.231 20.5769 42.8834 20.8979 42.7756L36.6408 37.4882C36.9617 37.3805 37.3093 37.5532 37.4171 37.8742C37.5249 38.1951 37.3521 38.5427 37.0311 38.6505L21.2882 43.9379C20.9673 44.0457 20.6197 43.8729 20.5119 43.552Z" fill="black"/>
<path fill-rule="evenodd" clip-rule="evenodd" d="M21.7672 47.2899C21.6594 46.9689 21.8322 46.6214 22.1531 46.5135L37.8961 41.2262C38.217 41.1184 38.5646 41.2911 38.6723 41.6121C38.7802 41.933 38.6074 42.2806 38.2864 42.3884L22.5435 47.6758C22.2225 47.7836 21.875 47.6108 21.7672 47.2899Z" fill="black"/>
<path fill-rule="evenodd" clip-rule="evenodd" d="M30.5405 48.4979C30.6485 48.8188 30.476 49.1665 30.1551 49.2745L23.7992 51.4138C23.4784 51.5217 23.1307 51.3492 23.0226 51.0283C22.9147 50.7074 23.0873 50.3597 23.4081 50.2518L29.764 48.1125C30.0848 48.0044 30.4325 48.177 30.5405 48.4979Z" fill="black"/>
<path d="M42.9755 19.1731C43.1539 18.5198 43.828 18.1349 44.4813 18.3133L71.3768 25.6586C72.0297 25.837 72.4147 26.5112 72.2363 27.1644L62.6533 62.2529C62.4752 62.9059 61.801 63.2909 61.1478 63.1125L34.2523 55.7673C33.5992 55.5889 33.2142 54.9148 33.3926 54.2616L42.9755 19.1731Z" fill="white"/>
<path fill-rule="evenodd" clip-rule="evenodd" d="M44.8043 17.1305L71.6999 24.4758C73.0063 24.8326 73.7763 26.1809 73.4195 27.4873L63.8365 62.5761C63.4797 63.8825 62.1313 64.6524 60.8248 64.2956L33.9294 56.95C32.6229 56.5933 31.8531 55.2449 32.2099 53.9385L41.7928 18.85C42.1496 17.5435 43.4979 16.7737 44.8043 17.1305ZM44.4813 18.3132C43.8281 18.1349 43.1539 18.5198 42.9755 19.173L33.3927 54.2615C33.2143 54.9148 33.5992 55.5889 34.2524 55.7673L61.1479 63.1125C61.8011 63.2909 62.4753 62.9059 62.6534 62.2529L72.2363 27.1643C72.4147 26.5111 72.0298 25.8369 71.3769 25.6585L44.4813 18.3132Z" fill="black"/>
<path fill-rule="evenodd" clip-rule="evenodd" d="M56.0947 49.7804C56.3315 49.8475 56.5053 50.0496 56.536 50.2938L57.2931 56.3145C57.3354 56.6504 57.0973 56.957 56.7614 56.9993C56.4254 57.0415 56.1189 56.8034 56.0766 56.4675L55.5 51.8818L52.5758 55.5222C52.3637 55.7861 51.9779 55.8282 51.7139 55.6162C51.4499 55.4041 51.4079 55.0183 51.6198 54.7543L55.4499 49.9864C55.604 49.7945 55.8579 49.7134 56.0947 49.7804Z" fill="black"/>
<path fill-rule="evenodd" clip-rule="evenodd" d="M53.213 53.0098C53.3022 52.6832 53.6393 52.4908 53.9659 52.58L56.524 53.2787C56.8507 53.3679 57.0432 53.7049 56.954 54.0315C56.8648 54.3582 56.5277 54.5506 56.201 54.4614L53.6429 53.7627C53.3163 53.6735 53.1238 53.3365 53.213 53.0098Z" fill="black"/>
<path fill-rule="evenodd" clip-rule="evenodd" d="M59.7709 53.0753C60.0976 53.1645 60.2901 53.5015 60.2009 53.8282L59.719 55.5924C59.6298 55.919 59.2927 56.1115 58.9661 56.0223C58.6395 55.9331 58.447 55.596 58.5362 55.2694L59.0181 53.5051C59.1073 53.1785 59.4444 52.9861 59.7709 53.0753Z" fill="black"/>
<path fill-rule="evenodd" clip-rule="evenodd" d="M60.8419 54.951C60.7527 55.2776 60.4156 55.47 60.089 55.3808L58.3247 54.8991C57.9981 54.8099 57.8057 54.4728 57.8949 54.1461C57.9841 53.8196 58.3212 53.6271 58.6477 53.7163L60.412 54.1981C60.7386 54.2873 60.931 54.6244 60.8419 54.951Z" fill="black"/>
<path d="M60.8418 38.6941C61.3762 38.3889 61.5621 37.7083 61.2569 37.1739C60.9518 36.6395 60.2712 36.4536 59.7368 36.7588L53.187 40.4984C52.599 40.8342 51.8501 40.6297 51.5143 40.0416L49.4179 36.3699C49.1128 35.8355 48.4322 35.6496 47.8978 35.9548C47.3634 36.2599 47.1775 36.9405 47.4826 37.4749L50.1862 42.21L50.1856 42.2121L50.1851 42.2142L51.2885 44.1468L51.2906 44.1474L51.2927 44.1479L51.2947 44.1485L53.2274 43.045L53.228 43.0429L53.2285 43.0409L60.8418 38.6941Z" fill="white"/>
<path fill-rule="evenodd" clip-rule="evenodd" d="M52.579 39.4337L59.1289 35.6939C60.2513 35.0531 61.6808 35.4435 62.3217 36.5659C62.9629 37.6884 62.5723 39.1179 61.4497 39.7587L53.9087 44.0644C53.8849 44.0802 53.8605 44.0953 53.8353 44.1097L51.9026 45.2132C51.6104 45.38 51.2787 45.4137 50.9775 45.3332C50.6699 45.2523 50.3939 45.0526 50.2238 44.7548L49.1203 42.822C49.1058 42.7967 49.0923 42.7709 49.0797 42.7449L46.4178 38.0828C45.777 36.9603 46.1674 35.5308 47.2898 34.8899C48.4123 34.2491 49.8418 34.6395 50.4826 35.7619L52.579 39.4337ZM61.2569 37.1739C61.5621 37.7083 61.3762 38.3889 60.8417 38.694L53.2285 43.0409C53.2278 43.0413 53.2275 43.0422 53.2279 43.0429C53.2281 43.0432 53.2281 43.0435 53.2281 43.0438C53.2281 43.0442 53.2278 43.0447 53.2274 43.0449L51.2947 44.1485C51.2939 44.1489 51.293 44.1486 51.2927 44.1479C51.2922 44.1472 51.2913 44.1469 51.2906 44.1474C51.2899 44.1478 51.2889 44.1475 51.2885 44.1468L50.185 42.2141C50.1846 42.2134 50.1848 42.2125 50.1856 42.2121C50.1863 42.2116 50.1865 42.2107 50.1861 42.21L47.4826 37.4749C47.1775 36.9404 47.3633 36.2598 47.8977 35.9547C48.4322 35.6496 49.1128 35.8354 49.4179 36.3699L51.5143 40.0415C51.85 40.6296 52.5989 40.8341 53.1869 40.4984L59.7367 36.7587C60.2712 36.4536 60.9518 36.6394 61.2569 37.1739Z" fill="black"/>
</svg>
