<svg width="83" height="80" viewBox="0 0 83 80" fill="none" xmlns="http://www.w3.org/2000/svg">
<rect width="82.2656" height="79.7344" rx="8" fill="#D7FBED"/>
<path d="M14.7086 26.6936C14.7086 25.0042 16.0782 23.6346 17.7677 23.6346H69.563C71.252 23.6346 72.6218 25.0042 72.6218 26.6936V60.6367C72.6218 62.3261 71.252 63.6955 69.563 63.6955H17.7677C16.0782 63.6955 14.7086 62.3261 14.7086 60.6367V26.6936Z" fill="black"/>
<path d="M11.9292 23.9143C11.9292 22.2248 13.2988 20.8552 14.9882 20.8552H66.7834C68.473 20.8552 69.8423 22.2248 69.8423 23.9143V57.8573C69.8423 59.5467 68.473 60.9163 66.7834 60.9163H14.9882C13.2988 60.9163 11.9292 59.5467 11.9292 57.8573V23.9143Z" fill="white"/>
<path fill-rule="evenodd" clip-rule="evenodd" d="M14.9883 19.8356H66.7835C69.0361 19.8356 70.8622 21.6616 70.8622 23.9142V57.8572C70.8622 60.1099 69.0361 61.9359 66.7835 61.9359H14.9883C12.7358 61.9359 10.9097 60.1099 10.9097 57.8572V23.9142C10.9097 21.6616 12.7357 19.8356 14.9883 19.8356ZM14.9883 20.8552C13.2989 20.8552 11.9293 22.2248 11.9293 23.9142V57.8572C11.9293 59.5467 13.2989 60.9163 14.9883 60.9163H66.7835C68.4731 60.9163 69.8424 59.5467 69.8424 57.8572V23.9142C69.8424 22.2248 68.4731 20.8552 66.7835 20.8552H14.9883Z" fill="black"/>
<path d="M15.5181 30.3521C15.5181 29.2258 16.4312 28.3127 17.5574 28.3127H41.2717C42.398 28.3127 43.3111 29.2258 43.3111 30.3521V43.2218C43.3111 44.3481 42.398 45.2611 41.2717 45.2611H17.5574C16.4312 45.2611 15.5181 44.3481 15.5181 43.2218V30.3521Z" fill="black"/>
<path fill-rule="evenodd" clip-rule="evenodd" d="M15.122 47.7835C15.1194 47.2203 15.5739 46.7618 16.137 46.7592L42.3667 46.6412C42.9298 46.6386 43.3884 47.0931 43.3909 47.6563C43.3934 48.2194 42.939 48.678 42.3759 48.6805L16.1462 48.7986C15.583 48.8011 15.1245 48.3466 15.122 47.7835Z" fill="black"/>
<path fill-rule="evenodd" clip-rule="evenodd" d="M15.2844 50.7158C15.2844 50.4343 15.5127 50.2061 15.7943 50.2061H35.9442C36.2258 50.2061 36.4541 50.4343 36.4541 50.7158C36.4541 50.9975 36.2258 51.2257 35.9442 51.2257H15.7943C15.5127 51.2257 15.2844 50.9975 15.2844 50.7158Z" fill="black"/>
<path fill-rule="evenodd" clip-rule="evenodd" d="M15.2844 55.7855C15.2844 55.5039 15.5127 55.2757 15.7943 55.2757H35.9442C36.2258 55.2757 36.4541 55.5039 36.4541 55.7855C36.4541 56.0671 36.2258 56.2953 35.9442 56.2953H15.7943C15.5127 56.2953 15.2844 56.0671 15.2844 55.7855Z" fill="black"/>
<path fill-rule="evenodd" clip-rule="evenodd" d="M15.2844 52.6154C15.2844 52.3338 15.5127 52.1056 15.7943 52.1056H26.1298C26.4114 52.1056 26.6396 52.3338 26.6396 52.6154C26.6396 52.897 26.4114 53.1252 26.1298 53.1252H15.7943C15.5127 53.1252 15.2844 52.897 15.2844 52.6154Z" fill="black"/>
<path fill-rule="evenodd" clip-rule="evenodd" d="M15.2844 57.3489C15.2844 57.0673 15.5127 56.8391 15.7943 56.8391H23.3505C23.6321 56.8391 23.8603 57.0673 23.8603 57.3489C23.8603 57.6305 23.6321 57.8588 23.3505 57.8588H15.7943C15.5127 57.8588 15.2844 57.6305 15.2844 57.3489Z" fill="black"/>
<path fill-rule="evenodd" clip-rule="evenodd" d="M58.6239 29.2678C58.6239 28.9863 58.8521 28.7581 59.1338 28.7581H67.5149C67.7967 28.7581 68.0251 28.9863 68.0251 29.2678C68.0251 29.5495 67.7967 29.7777 67.5149 29.7777H59.1338C58.8521 29.7777 58.6239 29.5495 58.6239 29.2678Z" fill="black"/>
<path fill-rule="evenodd" clip-rule="evenodd" d="M58.6243 31.3477C58.6243 31.0661 58.8525 30.8378 59.1341 30.8378H63.7092C63.991 30.8378 64.2188 31.0661 64.2188 31.3477C64.2188 31.6292 63.991 31.8575 63.7092 31.8575H59.1341C58.8525 31.8575 58.6243 31.6292 58.6243 31.3477Z" fill="black"/>
<path fill-rule="evenodd" clip-rule="evenodd" d="M58.6239 49.9235C58.6239 49.6419 58.8521 49.4136 59.1338 49.4136H67.5149C67.7967 49.4136 68.0251 49.6419 68.0251 49.9235C68.0251 50.205 67.7967 50.4333 67.5149 50.4333H59.1338C58.8521 50.4333 58.6239 50.205 58.6239 49.9235Z" fill="black"/>
<path fill-rule="evenodd" clip-rule="evenodd" d="M58.6243 52.0033C58.6243 51.7217 58.8525 51.4934 59.1341 51.4934H63.7092C63.991 51.4934 64.2188 51.7217 64.2188 52.0033C64.2188 52.2848 63.991 52.513 63.7092 52.513H59.1341C58.8525 52.513 58.6243 52.2848 58.6243 52.0033Z" fill="black"/>
<path fill-rule="evenodd" clip-rule="evenodd" d="M58.6239 38.8061C58.6239 38.5244 58.8521 38.2962 59.1338 38.2962H67.5149C67.7967 38.2962 68.0251 38.5244 68.0251 38.8061C68.0251 39.0876 67.7967 39.3158 67.5149 39.3158H59.1338C58.8521 39.3158 58.6239 39.0876 58.6239 38.8061Z" fill="black"/>
<path fill-rule="evenodd" clip-rule="evenodd" d="M58.6243 40.8858C58.6243 40.6042 58.8525 40.376 59.1341 40.376H63.7092C63.991 40.376 64.2188 40.6042 64.2188 40.8858C64.2188 41.1674 63.991 41.3956 63.7092 41.3956H59.1341C58.8525 41.3956 58.6243 41.1674 58.6243 40.8858Z" fill="black"/>
<path fill-rule="evenodd" clip-rule="evenodd" d="M47.5443 27.7272H55.8127C56.939 27.7272 57.852 28.6403 57.852 29.7666V35.1197C57.852 36.246 56.939 37.159 55.8127 37.159H47.5443C46.418 37.159 45.505 36.246 45.505 35.1197V29.7666C45.505 28.6403 46.418 27.7272 47.5443 27.7272ZM47.5443 28.7469C46.9812 28.7469 46.5246 29.2034 46.5246 29.7666V35.1197C46.5246 35.6828 46.9812 36.1393 47.5443 36.1393H55.8127C56.3758 36.1393 56.8324 35.6828 56.8324 35.1197V29.7666C56.8324 29.2034 56.3759 28.7469 55.8127 28.7469H47.5443Z" fill="black"/>
<path d="M31.9048 35.9861L29.4637 34.2423C28.7888 33.7603 27.8513 34.2427 27.8513 35.0721V38.5246C27.8513 39.3495 28.7799 39.833 29.4557 39.3599L31.8968 37.6512C32.4733 37.2476 32.4774 36.3952 31.9048 35.9861Z" fill="white"/>
<path fill-rule="evenodd" clip-rule="evenodd" d="M16.0887 23.1241H65.8158C66.6939 23.1241 67.4058 23.8361 67.4058 24.7143C67.4058 25.5926 66.6939 26.3046 65.8158 26.3046H16.0887C15.2104 26.3046 14.4984 25.5926 14.4984 24.7143C14.4984 23.8361 15.2104 23.1241 16.0887 23.1241ZM16.0887 24.1437C15.7735 24.1437 15.5181 24.3992 15.5181 24.7143C15.5181 25.0294 15.7735 25.2849 16.0887 25.2849H65.8158C66.1309 25.2849 66.386 25.0294 66.386 24.7143C66.386 24.3992 66.1309 24.1437 65.8158 24.1437H16.0887Z" fill="black"/>
<path fill-rule="evenodd" clip-rule="evenodd" d="M47.5443 37.6581H55.8127C56.939 37.6581 57.852 38.5711 57.852 39.6974V45.0505C57.852 46.1768 56.939 47.0899 55.8127 47.0899H47.5443C46.418 47.0899 45.505 46.1768 45.505 45.0505V39.6974C45.505 38.5711 46.418 37.6581 47.5443 37.6581ZM47.5443 38.6777C46.9812 38.6777 46.5246 39.1343 46.5246 39.6974V45.0505C46.5246 45.6137 46.9812 46.0702 47.5443 46.0702H55.8127C56.3758 46.0702 56.8324 45.6137 56.8324 45.0505V39.6974C56.8324 39.1343 56.3759 38.6777 55.8127 38.6777H47.5443Z" fill="black"/>
<path fill-rule="evenodd" clip-rule="evenodd" d="M47.5443 48.2268H55.8127C56.939 48.2268 57.852 49.1398 57.852 50.2661V55.6193C57.852 56.7456 56.939 57.6586 55.8127 57.6586H47.5443C46.418 57.6586 45.505 56.7455 45.505 55.6193V50.2661C45.505 49.1398 46.418 48.2268 47.5443 48.2268ZM47.5443 49.2464C46.9812 49.2464 46.5246 49.703 46.5246 50.2661V55.6193C46.5246 56.1824 46.9812 56.6389 47.5443 56.6389H55.8127C56.3758 56.6389 56.8324 56.1824 56.8324 55.6193V50.2661C56.8324 49.703 56.3759 49.2464 55.8127 49.2464H47.5443Z" fill="black"/>
<path fill-rule="evenodd" clip-rule="evenodd" d="M51.2405 32.8511C51.2405 33.0573 51.4727 33.1782 51.6416 33.06L52.3544 32.561C52.4985 32.4601 52.4995 32.247 52.3564 32.1447L51.6436 31.6356C51.4749 31.515 51.2405 31.6356 51.2405 31.843V32.8511ZM52.2363 30.8059L52.9491 31.315C53.6649 31.8263 53.6598 32.8919 52.9392 33.3963L52.2263 33.8953C51.3816 34.4866 50.2208 33.8823 50.2208 32.8511V31.843C50.2208 30.8063 51.3927 30.2032 52.2363 30.8059Z" fill="black"/>
<path fill-rule="evenodd" clip-rule="evenodd" d="M51.2405 43.1756C51.2405 43.3819 51.4727 43.5027 51.6416 43.3844L52.3544 42.8855C52.4985 42.7846 52.4995 42.5715 52.3564 42.4693L51.6436 41.9601C51.4749 41.8396 51.2405 41.9602 51.2405 42.1675V43.1756ZM52.2363 41.1304L52.9491 41.6395C53.6649 42.1508 53.6598 43.2164 52.9392 43.7209L52.2263 44.2198C51.3816 44.8112 50.2208 44.2068 50.2208 43.1756V42.1675C50.2208 41.1308 51.3927 40.5277 52.2363 41.1304Z" fill="black"/>
<path fill-rule="evenodd" clip-rule="evenodd" d="M51.2405 53.6091C51.2405 53.8153 51.4727 53.9361 51.6416 53.8179L52.3544 53.319C52.4985 53.218 52.4995 53.0049 52.3564 52.9027L51.6436 52.3935C51.4749 52.273 51.2405 52.3936 51.2405 52.6009V53.6091ZM52.2363 51.5638L52.9491 52.0729C53.6649 52.5843 53.6598 53.6498 52.9392 54.1543L52.2263 54.6532C51.3816 55.2446 50.2208 54.6402 50.2208 53.6091V52.6009C50.2208 51.5642 51.3927 50.9612 52.2363 51.5638Z" fill="black"/>
</svg>
